<svg aria-hidden="true" style="position: absolute; width: 0; height: 0; overflow: hidden;" version="1.1" xmlns="http://www.w3.org/2000/svg" xmlns:xlink="http://www.w3.org/1999/xlink">
<defs>
<symbol id="icon-find" viewBox="0 0 32 32">
<path fill="none" stroke-linejoin="miter" stroke-linecap="round" stroke-miterlimit="4" stroke-width="4" d="M30.5 30.5v0zM27.5 14.75c0 3.382-1.343 6.625-3.734 9.016s-5.634 3.734-9.016 3.734-6.625-1.343-9.016-3.734c-2.391-2.391-3.734-5.634-3.734-9.016s1.343-6.625 3.734-9.016c2.391-2.391 5.634-3.734 9.016-3.734s6.625 1.343 9.016 3.734c2.391 2.391 3.734 5.634 3.734 9.016v0z"></path>
</symbol>
<symbol id="icon-back" viewBox="0 0 32 32">
<path fill="none" stroke-linejoin="round" stroke-linecap="round" stroke-miterlimit="4" stroke-width="4" d="M29.429 16h-27.429"></path>
<path fill="none" stroke-linejoin="round" stroke-linecap="round" stroke-miterlimit="4" stroke-width="4" d="M14 28l-12-12 12-12"></path>
</symbol>
<symbol id="icon-heart" viewBox="0 0 32 32">
<path fill="none" stroke-linejoin="round" stroke-linecap="round" stroke-miterlimit="4" stroke-width="2.4" d="M27.722 6.149c-0.681-0.681-1.49-1.222-2.38-1.591s-1.844-0.559-2.807-0.559c-0.963 0-1.917 0.19-2.807 0.559s-1.699 0.909-2.38 1.591l-1.413 1.413-1.413-1.413c-1.376-1.376-3.241-2.148-5.187-2.148s-3.811 0.773-5.187 2.148c-1.376 1.376-2.148 3.241-2.148 5.187s0.773 3.811 2.148 5.187l11.787 11.787 11.787-11.787c0.681-0.681 1.222-1.49 1.59-2.38s0.559-1.844 0.559-2.807-0.19-1.917-0.559-2.807c-0.369-0.89-0.909-1.699-1.59-2.38z"></path>
</symbol>
<symbol id="icon-lk" viewBox="0 0 32 32">
<path d="M0 16c0-8.674 7.326-16 16-16s16 7.326 16 16c0 5.104-2.547 9.725-6.4 12.678v0.122h-0.163c-2.669 1.992-5.938 3.2-9.437 3.2s-6.768-1.208-9.437-3.2h-0.163v-0.122c-3.853-2.954-6.4-7.576-6.4-12.678zM11.398 24.378c-0.851 0.685-1.443 1.639-1.679 2.706 1.869 1.083 4.016 1.717 6.282 1.717s4.413-0.634 6.282-1.717c-0.236-1.067-0.828-2.021-1.679-2.705s-1.91-1.059-3.002-1.061h-3.2c-1.092 0.002-2.151 0.376-3.002 1.061zM22.028 21.459c1.312 0.873 2.337 2.114 2.948 3.567 2.347-2.334 3.824-5.544 3.824-9.026 0-6.939-5.861-12.8-12.8-12.8s-12.8 5.861-12.8 12.8c0 3.482 1.477 6.691 3.824 9.026 0.61-1.453 1.636-2.694 2.948-3.567s2.852-1.34 4.428-1.342h3.2c1.576 0.002 3.116 0.469 4.428 1.342zM9.6 12.8c0-3.648 2.752-6.4 6.4-6.4s6.4 2.752 6.4 6.4c0 3.648-2.752 6.4-6.4 6.4s-6.4-2.752-6.4-6.4zM12.8 12.8c0 1.885 1.315 3.2 3.2 3.2s3.2-1.315 3.2-3.2c0-1.885-1.315-3.2-3.2-3.2s-3.2 1.315-3.2 3.2z"></path>
</symbol>
<symbol id="icon-next" viewBox="0 0 32 32">
<path fill="none" stroke-linejoin="round" stroke-linecap="round" stroke-miterlimit="4" stroke-width="4" d="M9.333 2.667l13.333 13.333-13.333 13.333"></path>
</symbol>
<symbol id="icon-plus" viewBox="0 0 32 32">
<path d="M28.441 13.683h-9.235v-9.235c0-3.561-5.523-3.561-5.523 0v9.235h-9.235c-3.56 0-3.56 5.522 0 5.522h9.235v9.235c0 3.561 5.523 3.561 5.523 0v-9.235h9.235c3.561 0 3.561-5.522 0-5.522z"></path>
</symbol>
<symbol id="icon-previous" viewBox="0 0 32 32">
<path fill="none" stroke-linejoin="round" stroke-linecap="round" stroke-miterlimit="4" stroke-width="4" d="M22.667 29.333l-13.333-13.333 13.333-13.333"></path>
</symbol>
<symbol id="icon-red-heart" viewBox="0 0 32 32">
<path d="M31.114 7.943c-0.477-1.095-1.164-2.087-2.023-2.921-0.86-0.837-1.874-1.501-2.987-1.958-1.154-0.476-2.392-0.719-3.641-0.716-1.753 0-3.464 0.476-4.95 1.376-0.356 0.215-0.693 0.452-1.013 0.709-0.32-0.258-0.658-0.494-1.013-0.709-1.486-0.9-3.197-1.376-4.95-1.376-1.262 0-2.486 0.24-3.641 0.716-1.117 0.459-2.123 1.119-2.987 1.958-0.861 0.833-1.548 1.826-2.023 2.921-0.494 1.14-0.747 2.35-0.747 3.595 0 1.175 0.242 2.399 0.722 3.645 0.402 1.041 0.978 2.12 1.714 3.211 1.166 1.725 2.77 3.525 4.761 5.349 3.3 3.024 6.568 5.113 6.707 5.197l0.843 0.536c0.373 0.236 0.853 0.236 1.227 0l0.843-0.536c0.139-0.088 3.403-2.173 6.707-5.197 1.991-1.824 3.595-3.624 4.761-5.349 0.736-1.090 1.316-2.17 1.714-3.211 0.48-1.245 0.722-2.47 0.722-3.645 0.004-1.245-0.249-2.456-0.743-3.595z"></path>
</symbol>
<symbol id="icon-forward" viewBox="0 0 32 32">
<path fill="none" stroke="#fff" style="stroke: var(--color2, #fff)" stroke-linejoin="round" stroke-linecap="round" stroke-miterlimit="4" stroke-width="4" d="M2 16h27.429"></path>
<path fill="none" stroke="#fff" style="stroke: var(--color2, #fff)" stroke-linejoin="round" stroke-linecap="round" stroke-miterlimit="4" stroke-width="4" d="M17.429 4l12 12-12 12"></path>
</symbol>
<symbol id="icon-cart" viewBox="0 0 32 32">
<path fill="none" stroke-linejoin="round" stroke-linecap="round" stroke-miterlimit="4" stroke-width="3.2" d="M12.073 29.091c0.723 0 1.309-0.586 1.309-1.309s-0.586-1.309-1.309-1.309-1.309 0.586-1.309 1.309c0 0.723 0.586 1.309 1.309 1.309z"></path>
<path fill="none" stroke-linejoin="round" stroke-linecap="round" stroke-miterlimit="4" stroke-width="3.2" d="M26.473 29.091c0.723 0 1.309-0.586 1.309-1.309s-0.586-1.309-1.309-1.309c-0.723 0-1.309 0.586-1.309 1.309s0.586 1.309 1.309 1.309z"></path>
<path fill="none" stroke-linejoin="round" stroke-linecap="round" stroke-miterlimit="4" stroke-width="3.2" d="M1.6 1.6h5.236l3.508 17.529c0.12 0.603 0.448 1.144 0.926 1.529s1.078 0.59 1.692 0.578h12.724c0.614 0.012 1.213-0.193 1.692-0.578s0.807-0.927 0.926-1.529l2.095-10.983h-22.255"></path>
</symbol>
<symbol id="icon-check" viewBox="0 0 32 32">
<path d="M25.751 4.322c0.487-0.492 1.149-0.77 1.841-0.776s1.358 0.264 1.852 0.748c0.494 0.484 0.777 1.145 0.786 1.837s-0.257 1.359-0.738 1.856l-13.938 17.424c-0.239 0.258-0.528 0.465-0.85 0.608s-0.668 0.221-1.020 0.228c-0.352 0.007-0.701-0.058-1.028-0.189s-0.623-0.327-0.872-0.576l-9.241-9.237c-0.491-0.491-0.767-1.158-0.767-1.852s0.276-1.361 0.768-1.852c0.491-0.491 1.158-0.767 1.852-0.767s1.361 0.276 1.852 0.768l7.308 7.31 12.124-15.449c0.022-0.028 0.046-0.055 0.071-0.080l-0.002-0.002z"></path>
</symbol>
<symbol id="icon-cross" viewBox="0 0 32 32">
<path d="M29.056 24.37l-7.836-7.836 7.836-7.836c3.022-3.022-1.665-7.708-4.686-4.686l-7.836 7.836-7.836-7.836c-3.021-3.021-7.707 1.665-4.686 4.686l7.836 7.836-7.836 7.836c-3.022 3.022 1.665 7.708 4.686 4.686l7.836-7.836 7.836 7.836c3.021 3.021 7.707-1.665 4.686-4.686z"></path>
</symbol>
<symbol id="icon-fav" viewBox="0 0 32 32">
<path d="M21.817 1.684c2.354 0 4.33 0.794 5.931 2.381s2.401 3.525 2.401 5.812c0 1.12-0.235 2.253-0.706 3.396s-0.988 2.159-1.553 3.046c-0.565 0.887-1.518 2.031-2.859 3.431s-2.471 2.533-3.389 3.396-2.389 2.183-4.413 3.957l-2.189 1.961-2.189-1.891c-1.977-1.821-3.436-3.163-4.377-4.027s-2.083-1.996-3.424-3.396c-1.341-1.401-2.295-2.544-2.859-3.431s-1.071-1.902-1.518-3.046c-0.447-1.144-0.671-2.276-0.671-3.396 0-2.288 0.8-4.225 2.401-5.812s3.554-2.381 5.86-2.381c2.73 0 4.989 1.050 6.778 3.151 1.789-2.101 4.048-3.151 6.778-3.151zM15.18 24.934c2.306-2.054 3.989-3.583 5.048-4.587s2.224-2.206 3.495-3.606c1.271-1.401 2.153-2.626 2.648-3.676s0.741-2.112 0.741-3.186c0-1.494-0.506-2.731-1.518-3.711s-2.271-1.471-3.777-1.471c-1.13 0-2.201 0.327-3.212 0.98s-1.73 1.494-2.154 2.521h-2.824c-0.377-1.027-1.071-1.867-2.083-2.521s-2.106-0.98-3.283-0.98c-1.506 0-2.754 0.49-3.742 1.471s-1.483 2.218-1.483 3.711c0 1.074 0.235 2.136 0.706 3.186s1.353 2.276 2.648 3.676c1.294 1.401 2.471 2.603 3.53 3.606s2.718 2.533 4.978 4.587l0.141 0.14 0.141-0.14z"></path>
</symbol>
</defs>
</svg>
